<?xml version="1.0" encoding="utf-8"?>
<!-- Generator: Adobe Illustrator 25.0.0, SVG Export Plug-In . SVG Version: 6.00 Build 0)  -->
<svg version="1.1" id="Ebene_1" xmlns="http://www.w3.org/2000/svg" xmlns:xlink="http://www.w3.org/1999/xlink" x="0px" y="0px"
	 viewBox="0 0 138 131" style="enable-background:new 0 0 138 131;" xml:space="preserve">
<style type="text/css">
	.st0{fill:#545352;}
	.st1{fill:#007BA0;}
	.st2{fill:#8BB4D2;}
</style>
<g id="Logo_DE" transform="translate(-78.4 -251.5)">
	<g id="Gruppe_1231" transform="translate(98.337 321.256)">
		<path id="Pfad_1677" class="st0" d="M4.3,14c0,7.3,1.1,8.5,8.2,8.5c6.5,0,7.8-1.4,7.8-7.8c0-6.5-1.4-7.8-7.7-7.8
			C6,6.9,4.3,8.4,4.3,14 M0,0h4.2l0,7.3l0.1,0c0.4-1.1,1.4-1.8,2.5-2.1c2.2-0.6,4.6-0.9,6.9-0.9c8.4,0,11.1,2.6,11.1,10.5
			c0,7.6-2.9,10-11.6,10c-4.9,0-7.5-0.8-9.1-2.8h0l0.2,2.5H0L0,0z"/>
		<path id="Pfad_1678" class="st0" d="M33.6,4.8v2.3l0.1,0c1.9-2.1,4.4-2.8,8.8-2.8c5.8,0,8.5,1.8,8.5,5.7l0,4h-4.4V9.7
			c0-2.1-1.5-2.9-5-2.9c-3.3,0-5.7,0.8-6.7,2.2c-0.6,1.2-0.9,2.5-0.7,3.8v12h-4.5V4.8H33.6z"/>
		<path id="Pfad_1679" class="st0" d="M58.4,18.6c0,3.3,1.4,4,7.7,4c3.8,0,6.6-0.4,7.8-1.1c0.9-0.5,1.4-1.5,1.3-2.5
			c0-3-1.9-3.9-8.4-3.9C59.8,14.9,58.4,15.5,58.4,18.6 M55.1,10.4c0.1-4.8,2.3-5.9,11.8-5.9c9.7,0,12.4,1.6,12.4,7.1v13.2h-4.4
			l0.3-2.1l0,0c-1.8,1.9-4.3,2.5-10.1,2.5c-8.3,0-11.2-1.6-11.2-6c-0.1-2.1,1-4.1,2.8-5.2c1.6-0.8,4.5-1.2,8.7-1.2
			c2.5-0.1,5,0.2,7.5,0.7c0.8,0.1,1.6,0.6,2,1.3l0.1,0v-2.4c0-4.7-1.2-5.5-7.7-5.5c-6,0-7.7,0.7-7.7,3v0.6L55.1,10.4L55.1,10.4z"/>
	</g>
	<path id="Pfad_1680" class="st0" d="M187,346h-4l0-16.6h4L187,346z M187,325.7l-4,0l0-4.2h4L187,325.7z"/>
	<g id="Gruppe_1232" transform="translate(191.88 325.748)">
		<path id="Pfad_1681" class="st0" d="M4.3,0.3l0,2.8l0,0C5.7,0.9,8.6,0,14,0c4.9,0,8.2,0.9,9.6,2.7c0.7,0.9,0.9,2,0.9,4.6v13h-4.3
			V7.5c0-2.2-0.1-2.8-0.7-3.6c-0.9-1-2.6-1.5-6.1-1.5C7,2.5,4.4,4.1,4.4,8.2v12H0V0.3L4.3,0.3L4.3,0.3z"/>
	</g>
	<rect id="Rechteck_844" x="78.4" y="351.7" class="st0" width="7.6" height="30.8"/>
	<rect id="Rechteck_845" x="126.7" y="351.6" class="st1" width="7.9" height="30.8"/>
	<rect id="Rechteck_846" x="97.8" y="351.6" class="st2" width="7.9" height="30.8"/>
	<rect id="Rechteck_847" x="78.6" y="252.2" class="st2" width="8.4" height="63.2"/>
	<path id="Pfad_1682" class="st2" d="M98.5,259.5h7.9v-7.3h-7.9V259.5z M98.5,315.4h7.9v-44.3h-7.9V315.4z"/>
	<g id="Gruppe_1233" transform="translate(117.586 251.5)">
		<path id="Pfad_1683" class="st2" d="M9.1,25H0v-5.4h9.1V13c0-9.2,5.4-13,18.3-13c2.2,0,4.3,0.1,6.5,0.4v5.3
			c-3.2-0.2-4.9-0.3-6.6-0.3c-6.9,0-9.5,2-9.5,7v7.2l18.8,0L36.4,25l-18.7,0v38.9H9L9.1,25L9.1,25z"/>
		<path id="Pfad_1684" class="st2" d="M88.9,37.9c-0.1-6.5-0.4-7.8-1.5-9.7c-1.9-3-5.8-4.1-15.6-4.1C56,24.2,53,26.3,53.2,37.9
			L88.9,37.9z M98.3,50.5c0.1,0.6,0.1,1.2,0.1,1.8c0,9.1-7,12.2-27.4,12.2c-22.5,0-27.8-4.4-27.8-22.7S48.7,19,70.8,19
			c16.9,0,22.9,2.1,25.9,9.1C98,31,98.3,33.6,98.3,43H53c0.1,14,2.4,16.1,18.2,16.1s17.7-1,17.7-8.5L98.3,50.5L98.3,50.5z"/>
		<path id="Pfad_1685" class="st2" d="M92.6,7.5h1c0.8,0,1.6,0,1.6-1c0-0.8-0.7-0.9-1.3-0.9h-1.2L92.6,7.5L92.6,7.5z M91.7,4.8H94
			c1.4,0,2.1,0.5,2.1,1.7c0.1,0.8-0.6,1.6-1.4,1.6c0,0-0.1,0-0.1,0l1.7,2.7h-1l-1.6-2.6h-1v2.6h-0.9L91.7,4.8L91.7,4.8z M93.6,12.2
			c2.3,0,4.2-2,4.2-4.3c0,0,0-0.1,0-0.1c-0.1-2.3-2.1-4.1-4.4-3.9s-4.1,2.1-3.9,4.4C89.6,10.5,91.4,12.2,93.6,12.2 M93.6,2.7
			c2.8,0.1,5.1,2.4,5.1,5.3c-0.1,2.8-2.3,5-5.1,5.1c-2.8,0-5.2-2.3-5.2-5.2S90.8,2.7,93.6,2.7"/>
	</g>
</g>
</svg>
